# 3ds Max Wavefront OBJ Exporter v0.97b - (c)2007 guruware
# ì¬‚µ‚½ƒtƒ@ƒCƒ‹ : 16.01.2017 09:56:39

mtllib enemy.mtl

#
# object Character
#

v  -0.1569 0.5596 -0.5043
v  -0.3524 0.5569 -0.4167
v  -0.3252 0.7087 -0.3937
v  -0.1430 0.7456 -0.4774
v  -0.4623 0.5488 -0.2268
v  -0.6324 0.3997 -0.0424
v  -0.4204 0.7427 -0.2183
v  -0.3208 0.4085 -0.3735
v  -0.1946 0.1260 0.1773
v  -0.0102 0.1116 0.2028
v  -0.1695 0.2248 0.3501
v  -0.3076 0.2869 0.2712
v  -0.4404 0.3923 0.1459
v  -0.3591 0.2193 0.1295
v  -0.1686 0.1167 -0.1766
v  -0.2787 -0.0131 -0.0031
v  -0.3372 0.2116 -0.1591
v  -0.2668 0.2687 -0.3052
v  -0.1420 0.3771 -0.4526
v  -0.1189 0.2025 -0.3614
v  -0.4913 0.5605 0.1535
v  -0.3699 0.4301 0.3194
v  -0.4064 0.5806 0.3450
v  -0.3752 0.7306 0.3117
v  -0.4467 0.7537 0.1324
v  -0.1577 1.0151 -0.2178
v  0.0221 1.0496 -0.2216
v  -0.1150 0.9271 -0.3945
v  -0.2636 0.8560 -0.3321
v  -0.3339 0.9197 -0.1906
v  -0.1839 1.0281 0.1359
v  -0.1883 1.0620 -0.0479
v  -0.3554 0.9298 0.0977
v  -0.3047 0.8740 0.2442
v  -0.2063 0.7733 0.4121
v  -0.1658 0.9493 0.3169
v  -0.2251 0.5895 0.4540
v  -0.0303 0.5958 0.4972
v  -0.2042 0.4044 0.4212
v  -0.0282 0.3963 0.4621
v  -0.4827 0.7539 -0.0488
v  -0.4142 0.3821 -0.1990
v  -0.4755 0.3563 -0.0317
v  0.0409 0.7637 -0.4977
v  -0.3869 0.1741 -0.0181
v  0.0090 1.0993 -0.0379
v  -0.3778 0.9579 -0.0517
v  0.0036 0.0964 0.0089
v  0.0424 0.5640 -0.5243
v  0.1285 0.2408 0.3595
v  -0.0230 0.2039 0.3852
v  0.0169 0.1016 -0.1777
v  0.0383 0.3672 -0.4712
v  0.0312 0.1800 -0.3765
v  0.1819 0.9279 -0.3690
v  0.0354 0.9557 -0.4120
v  -0.0053 1.0638 0.1585
v  -0.0268 0.7934 0.4525
v  -0.0192 0.9796 0.3495
v  0.1576 0.7794 0.4240
v  0.1994 1.0158 -0.1924
v  0.1766 0.1462 0.1947
v  0.2361 0.5712 -0.4709
v  0.2196 0.7523 -0.4464
v  0.3889 0.7294 -0.3519
v  0.4187 0.5791 -0.3715
v  0.5007 0.5767 -0.1704
v  0.3806 0.4287 -0.3324
v  0.4583 0.7675 -0.1675
v  0.6425 0.4364 0.0318
v  0.2828 0.0156 0.0292
v  0.3466 0.2397 0.1708
v  0.2757 0.3038 0.3053
v  0.2005 0.1371 -0.1517
v  0.1782 0.2189 -0.3366
v  0.3169 0.2856 -0.2711
v  0.4485 0.4071 -0.1485
v  0.3658 0.2319 -0.1179
v  0.4755 0.5885 0.2101
v  0.4348 0.7794 0.1839
v  0.3385 0.7513 0.3534
v  0.3642 0.6029 0.3901
v  0.3311 0.4504 0.3605
v  0.2054 1.0627 -0.0240
v  0.3695 0.9393 -0.1503
v  0.3200 0.8728 -0.2978
v  0.1752 1.0286 0.1537
v  0.1320 0.9497 0.3271
v  0.2786 0.8908 0.2784
v  0.3499 0.9500 0.1383
v  0.1694 0.6004 0.4668
v  0.1530 0.4182 0.4325
v  0.4255 0.4173 0.1966
v  0.4855 0.3841 0.0246
v  0.4961 0.7815 0.0072
v  0.2139 0.3916 -0.4225
v  0.3933 0.9792 -0.0085
# 97 vertices

vn -0.2721 0.1678 -0.9475
vn -0.4027 0.2069 -0.8916
vn -0.5318 0.3804 -0.7567
vn -0.3009 0.3058 -0.9033
vn -0.8064 -0.0148 -0.5912
vn -0.9040 -0.4242 -0.0529
vn -0.8487 0.2581 -0.4616
vn -0.8456 0.2152 -0.4885
vn -0.7363 -0.1429 -0.6614
vn -0.6183 -0.4116 -0.6696
vn -0.2468 -0.8195 0.5172
vn 0.0365 -0.9530 0.3007
vn -0.3496 -0.8064 0.4770
vn -0.6722 -0.5668 0.4763
vn -0.7826 -0.4292 0.4509
vn -0.7377 -0.5099 0.4426
vn -0.1781 -0.8556 -0.4860
vn -0.3201 -0.9474 0.0038
vn -0.6697 -0.5450 -0.5045
vn -0.5667 -0.5778 -0.5873
vn -0.2809 -0.3848 -0.8792
vn -0.2995 -0.6845 -0.6647
vn -0.8779 0.0335 0.4776
vn -0.8329 -0.3631 0.4177
vn -0.9144 0.0050 0.4049
vn -0.8899 0.2579 0.3762
vn -0.8979 0.2981 0.3240
vn -0.3414 0.8494 -0.4024
vn 0.0254 0.9316 -0.3626
vn -0.3386 0.6411 -0.6887
vn -0.5738 0.5526 -0.6044
vn -0.7731 0.4650 -0.4314
vn -0.6421 0.6228 -0.4470
vn -0.3838 0.8747 0.2958
vn -0.3492 0.9347 -0.0664
vn -0.6865 0.6557 0.3143
vn -0.6326 0.5938 0.4971
vn -0.4248 0.5232 0.7388
vn -0.4151 0.6854 0.5982
vn -0.3845 0.0198 0.9229
vn -0.0340 0.0235 0.9991
vn -0.3726 0.2366 0.8973
vn -0.5208 0.2648 0.8116
vn -0.5156 0.0110 0.8568
vn -0.5158 -0.3338 0.7890
vn -0.8119 0.5019 0.2983
vn -0.6492 0.5611 0.5134
vn -0.3908 -0.3104 0.8665
vn -0.5492 -0.4309 0.7160
vn -0.3931 -0.3919 0.8318
vn -0.0209 -0.2856 0.9581
vn -0.8781 0.4717 -0.0804
vn -0.7168 -0.4633 -0.5211
vn -0.6085 -0.7930 -0.0298
vn -0.2519 -0.2941 -0.9220
vn 0.0771 0.2855 -0.9553
vn -0.8785 -0.4742 -0.0576
vn -0.9182 0.3865 -0.0869
vn 0.0025 0.9991 -0.0428
vn -0.7138 0.6958 -0.0793
vn 0.0506 -0.9983 0.0271
vn 0.0764 0.1431 -0.9868
vn 0.3423 -0.7870 0.5132
vn 0.0271 -0.8911 0.4531
vn 0.0674 -0.9727 -0.2221
vn 0.0929 -0.3692 -0.9247
vn 0.0899 -0.7392 -0.6674
vn 0.4037 0.6498 -0.6441
vn 0.0584 0.6932 -0.7184
vn -0.0151 0.9529 0.3028
vn -0.0404 0.5032 0.8632
vn -0.0274 0.7386 0.6736
vn 0.2629 0.2340 0.9360
vn -0.0334 0.2214 0.9746
vn -0.0196 -0.3717 0.9282
vn 0.3184 -0.3840 0.8667
vn 0.0932 -0.2730 -0.9575
vn 0.3496 0.8652 -0.3594
vn 0.2297 -0.8095 0.5403
vn 0.3722 0.1674 -0.9129
vn 0.3954 0.3077 -0.8654
vn 0.5825 0.3889 -0.7138
vn 0.4613 0.2039 -0.8635
vn 0.8787 -0.0139 -0.4772
vn 0.6946 -0.4111 -0.5903
vn 0.8165 -0.1430 -0.5594
vn 0.9022 0.2170 -0.3728
vn 0.9010 0.2622 -0.3456
vn 0.9156 -0.3968 0.0644
vn 0.3503 -0.9355 0.0469
vn 0.6835 -0.5194 0.5129
vn 0.6062 -0.5693 0.5553
vn 0.2837 -0.8474 -0.4488
vn 0.4215 -0.6733 -0.6074
vn 0.6314 -0.5837 -0.5105
vn 0.7880 -0.4626 -0.4062
vn 0.7365 -0.5609 -0.3781
vn 0.8052 0.0338 0.5920
vn 0.8424 0.2982 0.4488
vn 0.8273 0.2562 0.4999
vn 0.8505 0.0003 0.5259
vn 0.7760 -0.3578 0.5194
vn 0.3117 0.9500 -0.0196
vn 0.6595 0.6557 -0.3675
vn 0.6031 0.5793 -0.5484
vn 0.3051 0.8861 0.3490
vn 0.3196 0.6890 0.6505
vn 0.5174 0.6151 0.5949
vn 0.7548 0.5086 0.4142
vn 0.6045 0.6845 0.4075
vn 0.2714 0.0194 0.9623
vn 0.3898 -0.3214 0.8630
vn 0.3658 0.0226 0.9304
vn 0.3650 0.2620 0.8934
vn 0.2996 0.5217 0.7988
vn 0.5377 0.5666 0.6244
vn 0.3016 -0.3050 0.9033
vn 0.4324 -0.4221 0.7968
vn 0.7282 -0.4201 0.5415
vn 0.6232 -0.7799 0.0577
vn 0.8149 0.4755 -0.3314
vn 0.8762 0.4805 0.0382
vn 0.4054 -0.3837 -0.8297
vn 0.9188 0.3927 0.0404
vn 0.6852 0.7283 0.0119
vn 0.3816 -0.2953 -0.8759
# 126 vertex normals

vt 0.4420 0.8731 0.0000
vt 0.3992 0.9536 0.0000
vt 0.3440 0.9081 0.0000
vt 0.3749 0.8385 0.0000
vt 0.1685 0.1613 0.0000
vt 0.1569 0.2569 0.0000
vt 0.0772 0.1211 0.0000
vt 0.1430 0.0343 0.0000
vt 0.2275 0.0656 0.0000
vt 0.2785 0.1283 0.0000
vt 0.3459 0.3906 0.0000
vt 0.4264 0.4051 0.0000
vt 0.3353 0.4808 0.0000
vt 0.2582 0.4350 0.0000
vt 0.1915 0.3554 0.0000
vt 0.2757 0.3562 0.0000
vt 0.3679 0.2437 0.0000
vt 0.3430 0.3069 0.0000
vt 0.3018 0.2453 0.0000
vt 0.3212 0.1827 0.0000
vt 0.3583 0.1073 0.0000
vt 0.3811 0.1768 0.0000
vt 0.1049 0.3457 0.0000
vt 0.1714 0.4475 0.0000
vt 0.0845 0.4527 0.0000
vt 0.0001 0.4193 0.0000
vt 0.0079 0.3159 0.0000
vt 0.2581 0.8030 0.0000
vt 0.2702 0.7480 0.0000
vt 0.3190 0.8057 0.0000
vt 0.3019 0.8580 0.0000
vt 0.2610 0.9315 0.0000
vt 0.2424 0.8612 0.0000
vt 0.1481 0.7835 0.0000
vt 0.2046 0.7962 0.0000
vt 0.1445 0.8450 0.0000
vt 0.0898 0.8240 0.0000
vt 0.0181 0.7819 0.0000
vt 0.0891 0.7654 0.0000
vt 0.5732 0.8909 0.0000
vt 0.6256 0.8920 0.0000
vt 0.5748 0.9405 0.0000
vt 0.5248 0.9335 0.0000
vt 0.5168 0.8892 0.0000
vt 0.5274 0.8455 0.0000
vt 0.1045 0.9059 0.0000
vt 0.0351 0.8622 0.0000
vt 0.5773 0.8419 0.0000
vt 0.5389 0.8020 0.0000
vt 0.5829 0.7922 0.0000
vt 0.6263 0.8397 0.0000
vt 0.1828 0.9320 0.0000
vt 0.2386 0.2053 0.0000
vt 0.2120 0.2751 0.0000
vt 0.3302 0.0217 0.0000
vt 0.3928 0.7718 0.0000
vt 0.2896 0.2965 0.0000
vt 0.0232 0.2078 0.0000
vt 0.2154 0.7373 0.0000
vt 0.1947 0.8557 0.0000
vt 0.4296 0.3180 0.0000
vt 0.4764 0.7881 0.0000
vt 0.5116 0.4874 0.0000
vt 0.4225 0.5080 0.0000
vt 0.4324 0.2453 0.0000
vt 0.4377 0.1032 0.0000
vt 0.4349 0.1774 0.0000
vt 0.3370 0.7128 0.0000
vt 0.3292 0.7594 0.0000
vt 0.1563 0.7259 0.0000
vt 0.0204 0.6995 0.0000
vt 0.0965 0.7143 0.0000
vt 0.6750 0.9419 0.0000
vt 0.6249 0.9450 0.0000
vt 0.6270 0.7835 0.0000
vt 0.6709 0.7934 0.0000
vt 0.4415 0.0001 0.0000
vt 0.2796 0.6924 0.0000
vt 0.5078 0.3967 0.0000
vt 0.4764 0.6963 0.0000
vt 0.4011 0.7033 0.0000
vt 0.3986 0.6272 0.0000
vt 0.4668 0.6056 0.0000
vt 0.7018 0.1813 0.0000
vt 0.5945 0.1401 0.0000
vt 0.6501 0.0814 0.0000
vt 0.7367 0.0565 0.0000
vt 0.7958 0.1480 0.0000
vt 0.7062 0.2775 0.0000
vt 0.5168 0.3134 0.0000
vt 0.5803 0.3677 0.0000
vt 0.5918 0.4475 0.0000
vt 0.4968 0.2486 0.0000
vt 0.4887 0.1809 0.0000
vt 0.5479 0.1912 0.0000
vt 0.6286 0.2199 0.0000
vt 0.5626 0.2550 0.0000
vt 0.7515 0.3699 0.0000
vt 0.8504 0.3474 0.0000
vt 0.8504 0.4511 0.0000
vt 0.7637 0.4781 0.0000
vt 0.6774 0.4665 0.0000
vt 0.2275 0.6787 0.0000
vt 0.2868 0.6327 0.0000
vt 0.3408 0.6579 0.0000
vt 0.1703 0.6693 0.0000
vt 0.1088 0.6641 0.0000
vt 0.1314 0.6099 0.0000
vt 0.1757 0.5395 0.0000
vt 0.1899 0.6110 0.0000
vt 0.6779 0.8923 0.0000
vt 0.7250 0.8482 0.0000
vt 0.7343 0.8921 0.0000
vt 0.7252 0.9362 0.0000
vt 0.0491 0.6221 0.0000
vt 0.0949 0.5541 0.0000
vt 0.6752 0.8432 0.0000
vt 0.7146 0.8043 0.0000
vt 0.6643 0.3731 0.0000
vt 0.6499 0.2915 0.0000
vt 0.3304 0.5744 0.0000
vt 0.2580 0.5446 0.0000
vt 0.5166 0.1132 0.0000
vt 0.8432 0.2385 0.0000
vt 0.2405 0.6199 0.0000
vt 0.5510 0.0300 0.0000
# 126 texture coords

g Character
usemtl Material__26
s 1
f 1/1/1 2/2/2 3/3/3 4/4/4 
f 5/5/5 6/6/6 7/7/7 3/8/8 
f 3/8/8 2/9/9 8/10/10 5/5/5 
f 9/11/11 10/12/12 11/13/13 12/14/14 
f 12/14/14 13/15/15 14/16/16 9/11/11 
f 15/17/17 16/18/18 17/19/19 18/20/20 
f 18/20/20 19/21/21 20/22/22 15/17/17 
f 21/23/23 22/24/24 23/25/25 24/26/26 
f 24/26/26 25/27/27 6/6/6 21/23/23 
f 26/28/28 27/29/29 28/30/30 29/31/31 
f 29/31/31 7/32/32 30/33/33 26/28/28 
f 31/34/34 32/35/35 33/36/36 34/37/37 
f 34/37/37 35/38/38 36/39/39 31/34/34 
f 37/40/40 38/41/41 35/42/42 24/43/43 
f 24/43/43 23/44/44 22/45/45 37/40/40 
f 34/37/37 25/46/46 24/47/47 35/38/38 
f 39/48/48 37/40/40 22/45/45 12/49/49 
f 12/49/49 11/50/50 40/51/51 39/48/48 
f 12/14/14 22/24/24 21/23/23 13/15/15 
f 34/37/37 33/36/36 41/52/52 25/46/46 
f 29/31/31 4/4/4 3/3/3 7/32/32 
f 42/53/53 5/5/5 8/10/10 18/20/20 
f 18/20/20 17/19/19 43/54/54 42/53/53 
f 18/20/20 8/10/10 1/55/55 19/21/21 
f 29/31/31 28/30/30 44/56/56 4/4/4 
f 16/18/18 14/16/16 45/57/57 17/19/19 
f 6/6/6 25/27/27 41/58/58 7/7/7 
f 32/35/35 46/59/59 26/28/28 30/33/33 
f 30/33/33 41/52/52 47/60/60 32/35/35 
f 30/33/33 7/32/32 41/52/52 
f 17/19/19 45/57/57 14/16/16 43/54/54 
f 16/18/18 48/61/61 9/11/11 14/16/16 
f 32/35/35 47/60/60 41/52/52 33/36/36 
f 14/16/16 13/15/15 6/6/6 43/54/54 
f 49/62/62 1/1/1 4/4/4 44/56/56 
f 10/12/12 50/63/63 51/64/64 11/13/13 
f 52/65/65 48/61/61 15/17/17 20/22/22 
f 20/22/22 53/66/66 54/67/67 52/65/65 
f 27/29/29 55/68/68 56/69/69 28/30/30 
f 57/70/70 46/59/59 31/34/34 36/39/39 
f 36/39/39 58/71/71 59/72/72 57/70/70 
f 38/41/41 60/73/73 58/74/74 35/42/42 
f 36/39/39 35/38/38 58/71/71 
f 11/50/50 51/75/75 50/76/76 40/51/51 
f 20/22/22 19/21/21 49/77/77 53/66/66 
f 28/30/30 56/69/69 55/68/68 44/56/56 
f 48/61/61 16/18/18 15/17/17 
f 46/59/59 61/78/78 27/29/29 26/28/28 
f 48/61/61 62/79/79 10/12/12 9/11/11 
f 46/59/59 32/35/35 31/34/34 
f 8/10/10 2/9/9 1/55/55 
f 6/6/6 5/5/5 42/53/53 43/54/54 
f 13/15/15 21/23/23 6/6/6 
f 38/41/41 37/40/40 39/48/48 40/51/51 
f 19/21/21 1/55/55 49/77/77 
f 63/80/80 49/62/62 64/81/81 65/82/82 
f 65/82/82 66/83/83 63/80/80 
f 67/84/84 68/85/85 66/86/86 65/87/87 
f 65/87/87 69/88/88 70/89/89 67/84/84 
f 62/79/79 71/90/90 72/91/91 73/92/92 
f 73/92/92 50/63/63 10/12/12 62/79/79 
f 74/93/93 52/65/65 75/94/94 76/95/95 
f 76/95/95 77/96/96 78/97/97 74/93/93 
f 79/98/98 70/89/89 80/99/99 81/100/100 
f 81/100/100 82/101/101 83/102/102 79/98/98 
f 61/78/78 84/103/103 85/104/104 86/105/105 
f 86/105/105 64/81/81 55/68/68 61/78/78 
f 87/106/106 57/70/70 88/107/107 89/108/108 
f 89/108/108 80/109/109 90/110/110 87/106/106 
f 91/111/111 83/112/112 82/113/113 81/114/114 
f 81/114/114 60/73/73 38/41/41 91/111/111 
f 60/115/115 81/116/116 80/109/109 89/108/108 
f 89/108/108 88/107/107 58/71/71 60/115/115 
f 92/117/117 40/51/51 50/76/76 73/118/118 
f 73/118/118 83/112/112 91/111/111 92/117/117 
f 93/119/119 79/98/98 83/102/102 73/92/92 
f 73/92/92 72/91/91 94/120/120 93/119/119 
f 69/121/121 65/82/82 64/81/81 86/105/105 
f 86/105/105 85/104/104 95/122/122 69/121/121 
f 76/95/95 96/123/123 68/85/85 77/96/96 
f 76/95/95 75/94/94 53/66/66 96/123/123 
f 71/90/90 48/61/61 74/93/93 78/97/97 
f 78/97/97 94/120/120 71/90/90 
f 69/88/88 95/124/124 80/99/99 70/89/89 
f 84/103/103 90/110/110 97/125/125 85/104/104 
f 85/104/104 97/125/125 90/110/110 95/122/122 
f 78/97/97 77/96/96 70/89/89 94/120/120 
f 71/90/90 94/120/120 72/91/91 
f 84/103/103 46/59/59 87/106/106 90/110/110 
f 90/110/110 80/109/109 95/122/122 
f 49/62/62 44/56/56 55/68/68 64/81/81 
f 52/65/65 54/67/67 53/66/66 75/94/94 
f 27/29/29 61/78/78 55/68/68 
f 57/70/70 59/72/72 58/71/71 88/107/107 
f 48/61/61 52/65/65 74/93/93 
f 46/59/59 84/103/103 61/78/78 
f 48/61/61 71/90/90 62/79/79 
f 46/59/59 57/70/70 87/106/106 
f 67/84/84 70/89/89 77/96/96 68/85/85 
f 63/126/126 66/86/86 68/85/85 96/123/123 
f 70/89/89 79/98/98 93/119/119 94/120/120 
f 38/41/41 40/51/51 92/117/117 91/111/111 
f 49/77/77 63/126/126 96/123/123 53/66/66 
# 87 polygons - 16 triangles

#
# object Armature
#

#
# object Bone
#

v  0.2953 0.2873 0.3000
v  0.2953 0.2873 -0.3000
v  -0.3047 0.2873 -0.3000
v  -0.3047 0.2873 0.3000
v  -3.0047 3.2873 3.0000
v  -3.0047 3.2873 -3.0000
v  2.9953 3.2873 3.0000
v  2.9953 3.2873 -3.0000
v  -0.0047 0.2873 -0.0000
# 9 vertices

vn -0.0000 1.0000 -0.0000
vn 0.7433 0.6690 -0.0000
vn -0.0000 0.6690 -0.7433
vn -0.0000 0.6690 0.7433
vn -0.7433 0.6690 -0.0000
vn 0.0000 -0.7071 0.7071
vn -0.7071 -0.7071 0.0000
vn 0.0000 -0.7071 -0.7071
vn 0.7071 -0.7071 0.0000
# 9 vertex normals

g Bone
usemtl wire_027177148
s 1
f 98//127 99//127 100//127 101//127 
s 2
f 102//128 101//128 100//128 103//128 
s 4
f 104//129 98//129 101//129 102//129 
s 8
f 99//130 105//130 103//130 100//130 
s 16
f 98//131 104//131 105//131 99//131 
s 32
f 106//132 104//132 102//132 
s 64
f 106//133 102//133 103//133 
s 128
f 106//134 103//134 105//134 
s 256
f 106//135 105//135 104//135 
# 5 polygons - 4 triangles

#
# object Bone_001
#

v  0.0061 0.9344 0.3459
v  -0.0797 0.3496 0.2432
v  -0.0155 0.4436 -0.3459
v  0.0702 1.0284 -0.2432
v  3.6969 3.6074 -2.1865
v  2.8391 -2.2415 -3.2132
v  3.0550 2.6674 3.7046
v  2.1972 -3.1815 2.6778
v  -0.0047 0.6890 -0.0000
# 9 vertices

vn 0.9839 -0.1587 0.0819
vn 0.5787 -0.2226 0.7846
vn 0.5519 -0.8307 -0.0724
vn 0.7645 0.6184 0.1820
vn 0.7377 0.0103 -0.6750
vn -0.5947 0.8015 0.0631
vn -0.6201 0.2230 -0.7522
vn -0.7968 -0.5771 -0.1789
vn -0.7714 0.0014 0.6364
# 9 vertex normals

g Bone_001
usemtl wire_148177027
s 1
f 107//136 108//136 109//136 110//136 
s 2
f 111//137 110//137 109//137 112//137 
s 4
f 113//138 107//138 110//138 111//138 
s 8
f 108//139 114//139 112//139 109//139 
s 16
f 107//140 113//140 114//140 108//140 
s 32
f 115//141 113//141 111//141 
s 64
f 115//142 111//142 112//142 
s 128
f 115//143 112//143 114//143 
s 256
f 115//144 114//144 113//144 
# 5 polygons - 4 triangles

#
# object Bone_002
#

v  0.1473 0.8377 0.3208
v  0.1516 0.2761 0.1098
v  0.6046 0.4175 -0.2574
v  0.6003 0.9791 -0.0464
v  4.5868 3.3593 1.3759
v  4.6293 -2.2573 -0.7341
v  0.0570 1.9455 5.0478
v  0.0995 -3.6710 2.9378
v  0.3760 0.6276 0.0317
# 9 vertices

vn 0.6557 -0.2612 0.7084
vn -0.1225 -0.3498 0.9288
vn 0.4439 -0.8705 0.2125
vn 0.4334 0.5211 0.7353
vn 0.9998 0.0004 0.0190
vn -0.4687 0.8466 -0.2522
vn 0.0702 0.3513 -0.9336
vn -0.4587 -0.4773 -0.7496
vn -0.9975 0.0181 -0.0682
# 9 vertex normals

g Bone_002
usemtl wire_214229166
s 1
f 116//145 117//145 118//145 119//145 
s 2
f 120//146 119//146 118//146 121//146 
s 4
f 122//147 116//147 119//147 120//147 
s 8
f 117//148 123//148 121//148 118//148 
s 16
f 116//149 122//149 123//149 117//149 
s 32
f 124//150 122//150 120//150 
s 64
f 124//151 120//151 121//151 
s 128
f 124//152 121//152 123//152 
s 256
f 124//153 123//153 122//153 
# 5 polygons - 4 triangles

#
# object Bone_003
#

v  0.3811 0.8505 0.0708
v  -0.0700 0.6617 0.4183
v  -0.3906 0.5275 -0.0708
v  0.0606 0.7163 -0.4183
v  1.8068 -1.8049 -4.1832
v  -2.7050 -3.6936 -0.7080
v  5.0124 -0.4630 0.7080
v  0.5007 -2.3517 4.1831
v  -0.0047 0.6890 -0.0000
# 9 vertices

vn 0.3862 -0.9224 -0.0000
vn 0.6554 -0.4508 0.6059
vn -0.3006 -0.8511 0.4305
vn 0.8172 -0.3831 -0.4305
vn -0.1388 -0.7833 -0.6059
vn 0.2587 0.8748 -0.4096
vn -0.6508 0.4941 -0.5764
vn -0.8048 0.4297 0.4096
vn 0.1047 0.8104 0.5764
# 9 vertex normals

g Bone_003
usemtl wire_148177027
s 1
f 125//154 126//154 127//154 128//154 
s 2
f 129//155 128//155 127//155 130//155 
s 4
f 131//156 125//156 128//156 129//156 
s 8
f 126//157 132//157 130//157 127//157 
s 16
f 125//158 131//158 132//158 126//158 
s 32
f 133//159 131//159 129//159 
s 64
f 133//160 129//160 130//160 
s 128
f 133//161 130//161 132//161 
s 256
f 133//162 132//162 131//162 
# 5 polygons - 4 triangles

#
# object Bone_004
#

v  0.3178 0.3144 -0.3950
v  0.5449 0.3991 0.1538
v  0.0547 0.1511 0.3950
v  -0.1724 0.0663 -0.1538
v  -2.0955 -4.1299 -1.6616
v  0.1758 -3.2823 3.8268
v  2.8066 -1.6493 -4.0733
v  5.0778 -0.8017 1.4151
v  0.1863 0.2327 -0.0000
# 9 vertices

vn 0.4350 -0.8995 -0.0411
vn 0.8983 -0.2944 -0.3263
vn 0.5724 -0.4967 0.6524
vn 0.0096 -0.7068 -0.7074
vn 0.0096 -0.7067 -0.7074
vn -0.3163 -0.9090 0.2713
vn -0.5752 0.5361 -0.6178
vn -0.8853 0.3437 0.3133
vn -0.0399 0.7359 0.6759
vn 0.2701 0.9284 -0.2552
# 10 vertex normals

g Bone_004
usemtl wire_214229166
s 1
f 134//163 135//163 136//163 137//163 
s 2
f 138//164 137//164 136//164 139//164 
s 4
f 140//165 134//165 137//165 138//165 
s 8
f 135//166 141//167 139//166 136//167 
s 16
f 134//168 140//168 141//168 135//168 
s 32
f 142//169 140//169 138//169 
s 64
f 142//170 138//170 139//170 
s 128
f 142//171 139//171 141//171 
s 256
f 142//172 141//172 140//172 
# 5 polygons - 4 triangles

#
# object Bone_005
#

v  -0.0455 0.9344 -0.3436
v  0.0488 0.3496 -0.2488
v  0.0361 0.4436 0.3436
v  -0.0583 1.0284 0.2488
v  -3.5024 3.6074 2.4999
v  -2.5586 -2.2415 3.4482
v  -3.3748 2.6674 -3.4247
v  -2.4310 -3.1815 -2.4763
v  -0.0047 0.6890 -0.0000
# 9 vertices

vn -0.9873 -0.1587 0.0039
vn -0.6447 -0.2226 -0.7313
vn -0.5436 -0.8307 0.1201
vn -0.7774 0.6184 -0.1149
vn -0.6763 0.0103 0.7366
vn 0.5869 0.8015 -0.1145
vn 0.6831 0.2230 0.6954
vn 0.8094 -0.5771 0.1090
vn 0.7132 0.0014 -0.7010
# 9 vertex normals

g Bone_005
usemtl wire_148177027
s 1
f 143//173 144//173 145//173 146//173 
s 2
f 147//174 146//174 145//174 148//174 
s 4
f 149//175 143//175 146//175 147//175 
s 8
f 144//176 150//176 148//176 145//176 
s 16
f 143//177 149//177 150//177 144//177 
s 32
f 151//178 149//178 147//178 
s 64
f 151//179 147//179 148//179 
s 128
f 151//180 148//180 150//180 
s 256
f 151//181 150//181 149//181 
# 5 polygons - 4 triangles

#
# object Bone_006
#

v  -0.4315 0.6807 -0.4170
v  -0.1725 0.2679 -0.0671
v  -0.3420 0.5745 0.4201
v  -0.6010 0.9873 0.0701
v  -5.0994 2.6785 0.7660
v  -2.5089 -1.4497 4.2655
v  -3.4042 -0.3871 -4.1052
v  -0.8136 -4.5153 -0.6057
v  -0.3868 0.6276 0.0015
# 9 vertices

vn -0.8566 -0.5153 0.0262
vn -0.3630 -0.7245 -0.5859
vn -0.2521 -0.8562 0.4511
vn -0.8940 0.1667 -0.4160
vn -0.7830 0.0350 0.6210
vn 0.3004 0.8509 -0.4309
vn 0.4059 0.7257 0.5556
vn 0.9110 -0.1221 0.3939
vn 0.8055 0.0031 -0.5926
# 9 vertex normals

g Bone_006
usemtl wire_214229166
s 1
f 152//182 153//182 154//182 155//182 
s 2
f 156//183 155//183 154//183 157//183 
s 4
f 158//184 152//184 155//184 156//184 
s 8
f 153//185 159//185 157//185 154//185 
s 16
f 152//186 158//186 159//186 153//186 
s 32
f 160//187 158//187 156//187 
s 64
f 160//188 156//188 157//188 
s 128
f 160//189 157//189 159//189 
s 256
f 160//190 159//190 158//190 
# 5 polygons - 4 triangles

#
# object Bone_007
#

v  0.1437 0.6269 -0.3926
v  0.3574 0.5374 0.1609
v  -0.1531 0.7511 0.3926
v  -0.3669 0.8406 -0.1609
v  -4.7845 -0.5624 -1.6088
v  -2.6472 -1.4571 3.9258
v  0.3209 -2.6996 -3.9258
v  2.4581 -3.5943 1.6088
v  -0.0047 0.6890 -0.0000
# 9 vertices

vn -0.3862 -0.9224 -0.0000
vn 0.3741 -0.8818 -0.2870
vn 0.0064 -0.7279 0.6856
vn -0.5231 -0.5062 -0.6856
vn -0.8908 -0.3523 0.2870
vn 0.0212 0.7577 -0.6523
vn -0.3286 0.9041 0.2731
vn 0.5249 0.5468 0.6523
vn 0.8747 0.4004 -0.2731
# 9 vertex normals

g Bone_007
usemtl wire_148177027
s 1
f 161//191 162//191 163//191 164//191 
s 2
f 165//192 164//192 163//192 166//192 
s 4
f 167//193 161//193 164//193 165//193 
s 8
f 162//194 168//194 166//194 163//194 
s 16
f 161//195 167//195 168//195 162//195 
s 32
f 169//196 167//196 165//196 
s 64
f 169//197 165//197 166//197 
s 128
f 169//198 166//198 168//198 
s 256
f 169//199 168//199 167//199 
# 5 polygons - 4 triangles

#
# object Bone_008
#

v  -0.0644 0.1956 -0.4017
v  0.1701 0.0658 0.1351
v  -0.3271 0.2698 0.4017
v  -0.5616 0.3997 -0.1351
v  -5.0560 -0.8430 -1.4903
v  -2.7110 -2.1415 3.8777
v  -0.0833 -2.8839 -4.1562
v  2.2617 -4.1823 1.2117
v  -0.1957 0.2327 -0.0000
# 9 vertices

vn -0.4005 -0.9151 -0.0464
vn 0.3481 -0.8650 -0.3613
vn 0.0226 -0.7730 0.6339
vn -0.5584 -0.4513 -0.6960
vn -0.8839 -0.3594 0.2992
vn 0.0068 0.8001 -0.5998
vn -0.3029 0.8876 0.3470
vn 0.5595 0.4941 0.6654
vn 0.8692 0.4066 -0.2814
# 9 vertex normals

g Bone_008
usemtl wire_214229166
s 1
f 170//200 171//200 172//200 173//200 
s 2
f 174//201 173//201 172//201 175//201 
s 4
f 176//202 170//202 173//202 174//202 
s 8
f 171//203 177//203 175//203 172//203 
s 16
f 170//204 176//204 177//204 171//204 
s 32
f 178//205 176//205 174//205 
s 64
f 178//206 174//206 175//206 
s 128
f 178//207 175//207 177//207 
s 256
f 178//208 177//208 176//208 
# 5 polygons - 4 triangles

